<svg width="35" height="35" viewBox="0 0 35 35" fill="none" xmlns="http://www.w3.org/2000/svg">
<path d="M31.7188 13.4896L17.5 30.9896L3.28125 13.4896L10.9375 4.73962H24.0625L31.7188 13.4896Z" fill="#63EAD1"/>
<path fill-rule="evenodd" clip-rule="evenodd" d="M17.4999 31.7188C17.2803 31.7188 17.0725 31.6198 16.934 31.4494L2.71525 13.9494C2.49126 13.6737 2.49851 13.2768 2.73242 13.0094L10.3887 4.25944C10.5271 4.1012 10.7272 4.01044 10.9374 4.01044H24.0624C24.2727 4.01044 24.4727 4.1012 24.6112 4.25944L32.2674 13.0094C32.5013 13.2768 32.5086 13.6737 32.2846 13.9494L18.0658 31.4494C17.9274 31.6198 17.7195 31.7188 17.4999 31.7188ZM10.9374 4.7396H24.0624L31.7187 13.4896L17.4999 30.9896L3.28117 13.4896L10.9374 4.7396Z" fill="#02476F"/>
<path d="M24.0625 4.73962L31.7188 13.4896H3.28125L10.9375 4.73962H24.0625Z" fill="#77F9E1"/>
<path d="M31.7188 13.4896L17.5 30.9896V4.73962H24.0625L31.7188 13.4896Z" fill="#1EB5AC"/>
<path d="M31.7188 13.4896H17.5V4.73962H24.0625L31.7188 13.4896Z" fill="#30CFC6"/>
<path d="M3.28125 13.4896L17.5 30.9896L10.2083 13.4896L17.5 4.73962H10.9375L3.28125 13.4896Z" fill="#5AD9C2"/>
<path d="M11.3021 4.73962L3.28125 13.4896H10.2083L17.5 4.73962H11.3021Z" fill="#7AEED9"/>
<path d="M3.28125 13.4896L17.5 30.9896L5.83333 13.4896L13.4896 4.73962H10.9375L3.28125 13.4896Z" fill="#84F8E3"/>
<path d="M10.9374 4.73962L3.28117 13.4896H5.83325L13.4895 4.73962H10.9374Z" fill="#B1FFF1"/>
<path d="M31.7188 13.4896L17.5 30.9896L24.7917 13.4896L17.5 4.73962H24.0625L31.7188 13.4896Z" fill="#2E90A6"/>
<path d="M24.0625 4.73962L31.7188 13.4896H24.7917L17.5 4.73962H24.0625Z" fill="#4AACC2"/>
<path d="M31.7188 13.4896L17.5 30.9896L29.1667 13.4896L21.5104 4.73962H24.0625L31.7188 13.4896Z" fill="#1EB5AC"/>
<path d="M24.0623 4.73962L31.7186 13.4896H29.1665L21.5103 4.73962H24.0623Z" fill="#30CFC6"/>
<path fill-rule="evenodd" clip-rule="evenodd" d="M9.71795 7.0162C9.87011 7.14807 9.88656 7.37833 9.75468 7.53049L5.0151 12.9992C4.88323 13.1514 4.65297 13.1678 4.50081 13.036C4.34865 12.9041 4.3322 12.6738 4.46408 12.5217L9.20366 7.05294C9.33553 6.90078 9.56579 6.88433 9.71795 7.0162Z" fill="white"/>
<path fill-rule="evenodd" clip-rule="evenodd" d="M16.645 7.0162C16.7971 7.14807 16.8136 7.37833 16.6817 7.53049L11.9421 12.9992C11.8102 13.1514 11.58 13.1678 11.4278 13.036C11.2757 12.9041 11.2592 12.6738 11.3911 12.5217L16.1307 7.05294C16.2625 6.90078 16.4928 6.88433 16.645 7.0162Z" fill="#DFFFF9"/>
<path d="M20.7812 18.2292C20.7812 18.4306 20.6179 18.5938 20.4166 18.5938C20.2152 18.5938 20.052 18.4306 20.052 18.2292C20.052 18.0279 20.2152 17.8646 20.4166 17.8646C20.6179 17.8646 20.7812 18.0279 20.7812 18.2292Z" fill="#1D9E97"/>
<path d="M21.8749 19.6875C21.8749 19.8889 21.7117 20.0521 21.5103 20.0521C21.309 20.0521 21.1458 19.8889 21.1458 19.6875C21.1458 19.4862 21.309 19.3229 21.5103 19.3229C21.7117 19.3229 21.8749 19.4862 21.8749 19.6875Z" fill="#1D9E97"/>
<path d="M20.4167 21.5105C20.4167 21.7118 20.2534 21.875 20.0521 21.875C19.8507 21.875 19.6875 21.7118 19.6875 21.5105C19.6875 21.3091 19.8507 21.1459 20.0521 21.1459C20.2534 21.1459 20.4167 21.3091 20.4167 21.5105Z" fill="#1D9E97"/>
<path d="M19.3229 22.2396C19.3229 22.441 19.1597 22.6042 18.9583 22.6042C18.757 22.6042 18.5938 22.441 18.5938 22.2396C18.5938 22.0383 18.757 21.8751 18.9583 21.8751C19.1597 21.8751 19.3229 22.0383 19.3229 22.2396Z" fill="#1D9E97"/>
<path d="M19.3229 24.4271C19.3229 24.6285 19.1597 24.7917 18.9583 24.7917C18.757 24.7917 18.5938 24.6285 18.5938 24.4271C18.5938 24.2258 18.757 24.0626 18.9583 24.0626C19.1597 24.0626 19.3229 24.2258 19.3229 24.4271Z" fill="#1D9E97"/>
<path d="M19.6874 17.1355C19.6874 17.3368 19.5242 17.5 19.3228 17.5C19.1215 17.5 18.9583 17.3368 18.9583 17.1355C18.9583 16.9341 19.1215 16.7709 19.3228 16.7709C19.5242 16.7709 19.6874 16.9341 19.6874 17.1355Z" fill="#1D9E97"/>
<path d="M22.6042 16.4063C22.6042 16.6076 22.4409 16.7709 22.2396 16.7709C22.0382 16.7709 21.875 16.6076 21.875 16.4063C21.875 16.2049 22.0382 16.0417 22.2396 16.0417C22.4409 16.0417 22.6042 16.2049 22.6042 16.4063Z" fill="#1D9E97"/>
<path d="M21.1458 16.224C21.1458 16.526 20.9009 16.7709 20.5989 16.7709C20.2968 16.7709 20.052 16.526 20.052 16.224C20.052 15.922 20.2968 15.6771 20.5989 15.6771C20.9009 15.6771 21.1458 15.922 21.1458 16.224Z" fill="#1D9E97"/>
<path d="M20.4167 19.8698C20.4167 20.1718 20.1719 20.4167 19.8699 20.4167C19.5678 20.4167 19.323 20.1718 19.323 19.8698C19.323 19.5678 19.5678 19.3229 19.8699 19.3229C20.1719 19.3229 20.4167 19.5678 20.4167 19.8698Z" fill="#1D9E97"/>
</svg>
