<svg width="32" height="32" viewBox="0 0 32 32" fill="none" xmlns="http://www.w3.org/2000/svg">
<path d="M7.33333 8.66675L7.33333 23.3334L13.3333 29.3334L18.6667 29.3334L24.6667 23.3334L24.6667 8.66675L18.6667 2.66675L13.3333 2.66675L7.33333 8.66675Z" fill="#E3E73C"/>
<path fill-rule="evenodd" clip-rule="evenodd" d="M6.86193 8.19526C6.7369 8.32029 6.66667 8.48986 6.66667 8.66667L6.66667 23.3333C6.66667 23.5101 6.7369 23.6797 6.86193 23.8047L12.8619 29.8047C12.987 29.9298 13.1565 30 13.3333 30L18.6667 30C18.8435 30 19.013 29.9298 19.1381 29.8047L25.1381 23.8047C25.2631 23.6797 25.3333 23.5101 25.3333 23.3333L25.3333 8.66667C25.3333 8.48986 25.2631 8.32029 25.1381 8.19526L19.1381 2.19526C19.013 2.07024 18.8435 2 18.6667 2L13.3333 2C13.1565 2 12.987 2.07024 12.8619 2.19526L6.86193 8.19526ZM13.3333 2.66667L7.33333 8.66667L7.33333 23.3333L13.3333 29.3333L18.6667 29.3333L24.6667 23.3333L24.6667 8.66667L18.6667 2.66667L13.3333 2.66667Z" fill="#384B00"/>
<path d="M7.33333 23.3334L7.33333 8.66675L12.3333 10.3334L12.3333 21.6667L7.33333 23.3334Z" fill="#DAEE8B"/>
<path d="M13.3333 2.66675L7.33333 8.66676L12.3333 10.3334L16 6.00008L18.6667 2.66675L13.3333 2.66675Z" fill="#FFF9C1"/>
<path d="M19.6667 21.6667L16 26.0001L13.3333 29.3334L18.6667 29.3334L24.6667 23.3334L24.6667 8.66675L18.6667 2.66675L16 6.00008L19.6667 10.3334L19.6667 21.6667Z" fill="#AFD02B"/>
<path d="M24.6667 8.66675L24.6667 23.3334L19.6667 21.6667L19.6667 10.3334L24.6667 8.66675Z" fill="#63C038"/>
<path d="M24 11.9999C24 12.3681 23.7015 12.6666 23.3333 12.6666C22.9651 12.6666 22.6667 12.3681 22.6667 11.9999C22.6667 11.6317 22.9651 11.3333 23.3333 11.3333C23.7015 11.3333 24 11.6317 24 11.9999Z" fill="#73D346"/>
<path d="M23 14.8333C23 15.1094 22.7761 15.3333 22.5 15.3333C22.2239 15.3333 22 15.1094 22 14.8333C22 14.5571 22.2239 14.3333 22.5 14.3333C22.7761 14.3333 23 14.5571 23 14.8333Z" fill="#73D346"/>
<path d="M24 13.9998C24 14.1839 23.8508 14.3332 23.6667 14.3332C23.4826 14.3332 23.3333 14.1839 23.3333 13.9998C23.3333 13.8157 23.4826 13.6665 23.6667 13.6665C23.8508 13.6665 24 13.8157 24 13.9998Z" fill="#73D346"/>
<path d="M22.3333 12.9998C22.3333 13.1839 22.1841 13.3332 22 13.3332C21.8159 13.3332 21.6667 13.1839 21.6667 12.9998C21.6667 12.8157 21.8159 12.6665 22 12.6665C22.1841 12.6665 22.3333 12.8157 22.3333 12.9998Z" fill="#73D346"/>
<path d="M24 9.99984C24 10.1839 23.8508 10.3332 23.6667 10.3332C23.4826 10.3332 23.3333 10.1839 23.3333 9.99984C23.3333 9.81574 23.4826 9.6665 23.6667 9.6665C23.8508 9.6665 24 9.81574 24 9.99984Z" fill="#73D346"/>
<path d="M24 17.9998C24 18.1839 23.8508 18.3332 23.6667 18.3332C23.4826 18.3332 23.3333 18.1839 23.3333 17.9998C23.3333 17.8157 23.4826 17.6665 23.6667 17.6665C23.8508 17.6665 24 17.8157 24 17.9998Z" fill="#73D346"/>
<path d="M24 16.3333C24 16.5174 23.8508 16.6667 23.6667 16.6667C23.4826 16.6667 23.3333 16.5174 23.3333 16.3333C23.3333 16.1492 23.4826 16 23.6667 16C23.8508 16 24 16.1492 24 16.3333Z" fill="#73D346"/>
<path d="M12.3333 10.3333L12.3333 21.6667L16 26L19.6667 21.6823L19.6667 10.3333L16 6L12.3333 10.3333Z" fill="#D1FA2D"/>
<path d="M12.3333 21.6667L12.3333 10.3333L16 6L19.6667 10.3333L12.3333 21.6667Z" fill="#E4FF76"/>
<path fill-rule="evenodd" clip-rule="evenodd" d="M16.2111 6.74211C16.3536 6.85868 16.3746 7.06869 16.258 7.21117L13.3333 10.7857V17.6668C13.3333 17.8509 13.1841 18.0001 13 18.0001C12.8159 18.0001 12.6667 17.8509 12.6667 17.6668V10.6668C12.6667 10.5898 12.6933 10.5152 12.742 10.4557L15.742 6.78901C15.8586 6.64653 16.0686 6.62553 16.2111 6.74211Z" fill="#F5FFCE"/>
<path fill-rule="evenodd" clip-rule="evenodd" d="M8 9.33325C8.18409 9.33325 8.33333 9.48249 8.33333 9.66659V22.3332C8.33333 22.5173 8.18409 22.6666 8 22.6666C7.8159 22.6666 7.66667 22.5173 7.66667 22.3332V9.66659C7.66667 9.48249 7.8159 9.33325 8 9.33325Z" fill="#DFF8AA"/>
<path fill-rule="evenodd" clip-rule="evenodd" d="M13.9024 3.09763C14.0325 3.22781 14.0325 3.43886 13.9024 3.56904L8.90237 8.56904C8.77219 8.69921 8.56114 8.69921 8.43096 8.56904C8.30079 8.43886 8.30079 8.22781 8.43096 8.09763L13.431 3.09763C13.5611 2.96746 13.7722 2.96746 13.9024 3.09763Z" fill="#FDFFE2"/>
<path d="M22.6667 24.1665C22.6667 24.4426 22.4428 24.6665 22.1667 24.6665C21.8905 24.6665 21.6667 24.4426 21.6667 24.1665C21.6667 23.8904 21.8905 23.6665 22.1667 23.6665C22.4428 23.6665 22.6667 23.8904 22.6667 24.1665Z" fill="#99BC0D"/>
<path d="M19.3333 27.5C19.3333 27.7761 19.1095 28 18.8333 28C18.5572 28 18.3333 27.7761 18.3333 27.5C18.3333 27.2239 18.5572 27 18.8333 27C19.1095 27 19.3333 27.2239 19.3333 27.5Z" fill="#99BC0D"/>
<path d="M20.6667 26.1665C20.6667 26.4426 20.4428 26.6665 20.1667 26.6665C19.8905 26.6665 19.6667 26.4426 19.6667 26.1665C19.6667 25.8904 19.8905 25.6665 20.1667 25.6665C20.4428 25.6665 20.6667 25.8904 20.6667 26.1665Z" fill="#99BC0D"/>
<path d="M19 25.3333C19 25.5174 18.8508 25.6667 18.6667 25.6667C18.4826 25.6667 18.3333 25.5174 18.3333 25.3333C18.3333 25.1492 18.4826 25 18.6667 25C18.8508 25 19 25.1492 19 25.3333Z" fill="#99BC0D"/>
<path d="M21.3333 25.3333C21.3333 25.5174 21.1841 25.6667 21 25.6667C20.8159 25.6667 20.6667 25.5174 20.6667 25.3333C20.6667 25.1492 20.8159 25 21 25C21.1841 25 21.3333 25.1492 21.3333 25.3333Z" fill="#99BC0D"/>
<path d="M20.6667 23.9999C20.6667 24.3681 20.3682 24.6666 20 24.6666C19.6318 24.6666 19.3333 24.3681 19.3333 23.9999C19.3333 23.6317 19.6318 23.3333 20 23.3333C20.3682 23.3333 20.6667 23.6317 20.6667 23.9999Z" fill="#99BC0D"/>
</svg>
