<svg width="35" height="35" viewBox="0 0 35 35" fill="none" xmlns="http://www.w3.org/2000/svg">
<path d="M30.4936 21.226C28.5729 28.2747 21.3864 32.5055 14.4421 30.6759C7.49782 28.8462 3.42544 21.6489 5.34617 14.6002C7.26691 7.55149 14.4534 3.32064 21.3977 5.15031C28.342 6.97998 32.4144 14.1773 30.4936 21.226Z" fill="#A56402"/>
<path fill-rule="evenodd" clip-rule="evenodd" d="M31.3049 21.4397C29.2706 28.9048 21.6411 33.4275 14.2248 31.4735C6.80839 29.5194 2.50078 21.8515 4.535 14.3864C6.56923 6.92121 14.1987 2.39851 21.6151 4.35257C29.0315 6.30663 33.3391 13.9745 31.3049 21.4397ZM14.4421 30.6758C21.3864 32.5055 28.5729 28.2746 30.4936 21.2259C32.4144 14.1772 28.342 6.97991 21.3977 5.15024C14.4535 3.32058 7.26694 7.55143 5.34621 14.6001C3.42547 21.6488 7.49786 28.8461 14.4421 30.6758Z" fill="#5B3303"/>
<path d="M29.6538 20.4001C27.733 27.4488 20.5465 31.6796 13.6023 29.8499C6.65798 28.0203 2.5856 20.8229 4.50633 13.7743C6.42707 6.72556 13.6136 2.49471 20.5579 4.32438C27.5021 6.15405 31.5745 13.3514 29.6538 20.4001Z" fill="#FFB423"/>
<path fill-rule="evenodd" clip-rule="evenodd" d="M30.465 20.6137C28.4308 28.0789 20.8013 32.6016 13.3849 30.6475C5.96855 28.6935 1.66093 21.0256 3.69516 13.5605C5.72938 6.09528 13.3589 1.57259 20.7752 3.52664C28.1916 5.4807 32.4992 13.1486 30.465 20.6137ZM13.6023 29.8499C20.5466 31.6795 27.7331 27.4487 29.6538 20.4C31.5745 13.3513 27.5022 6.15399 20.5579 4.32432C13.6136 2.49465 6.4271 6.7255 4.50637 13.7742C2.58563 20.8229 6.65801 28.0202 13.6023 29.8499Z" fill="#5B3303"/>
<path d="M27.2202 19.7588C25.6596 25.4859 19.8546 28.9324 14.2544 27.4569C8.65414 25.9813 5.37938 20.1425 6.93997 14.4154C8.50057 8.68835 14.3056 5.24182 19.9058 6.71735C25.506 8.19289 28.7808 14.0318 27.2202 19.7588Z" fill="#FFCF23"/>
<path fill-rule="evenodd" clip-rule="evenodd" d="M28.0313 19.9725C26.3588 26.1103 20.1149 29.8559 14.037 28.2545C7.95904 26.6531 4.45621 20.3394 6.12874 14.2016C7.80127 8.06378 14.0452 4.31821 20.1231 5.91962C26.201 7.52102 29.7039 13.8347 28.0313 19.9725ZM14.2543 27.4568C19.8546 28.9323 25.6595 25.4858 27.2201 19.7587C28.7807 14.0317 25.506 8.19283 19.9058 6.71729C14.3055 5.24175 8.50054 8.68829 6.93995 14.4153C5.37935 20.1424 8.65411 25.9813 14.2543 27.4568Z" fill="#DF8D12"/>
<path fill-rule="evenodd" clip-rule="evenodd" d="M24.8753 9.7348C23.7216 8.72378 22.3263 7.95973 20.7456 7.54327C15.1454 6.06773 9.34042 9.51426 7.77982 15.2413C6.77277 18.937 7.7792 22.6792 10.1247 25.2654C7.19079 22.6944 5.81987 18.5261 6.93999 14.4155C8.50059 8.68845 14.3056 5.24191 19.9058 6.71745C21.8922 7.24083 23.5861 8.31319 24.8753 9.7348Z" fill="#FFDD65"/>
<path d="M24.4635 21.6835C24.6001 21.9782 24.468 22.326 24.1684 22.4603C23.8687 22.5947 23.5151 22.4648 23.3784 22.1702C23.2417 21.8756 23.3738 21.5278 23.6735 21.3934C23.9731 21.259 24.3268 21.3889 24.4635 21.6835Z" fill="#EEBE14"/>
<path d="M26.8652 19.3173C27.0019 19.612 26.8697 19.9597 26.5701 20.0941C26.2705 20.2285 25.9168 20.0986 25.7801 19.804C25.6434 19.5094 25.7756 19.1616 26.0752 19.0272C26.3748 18.8928 26.7285 19.0227 26.8652 19.3173Z" fill="#EEBE14"/>
<path d="M23.9577 19.0793C24.0943 19.3739 23.9622 19.7217 23.6626 19.8561C23.3629 19.9905 23.0093 19.8606 22.8726 19.566C22.7359 19.2713 22.868 18.9235 23.1677 18.7891C23.4673 18.6547 23.821 18.7847 23.9577 19.0793Z" fill="#EEBE14"/>
<path d="M25.1773 19.9476C25.2725 20.1528 25.1805 20.395 24.9718 20.4886C24.7631 20.5822 24.5168 20.4918 24.4216 20.2866C24.3264 20.0814 24.4184 19.8392 24.6271 19.7456C24.8358 19.652 25.0821 19.7424 25.1773 19.9476Z" fill="#EEBE14"/>
<path d="M25.0157 18.1559C25.1109 18.3611 25.0189 18.6033 24.8102 18.6969C24.6016 18.7905 24.3552 18.7 24.26 18.4948C24.1649 18.2896 24.2569 18.0474 24.4655 17.9538C24.6742 17.8602 24.9205 17.9507 25.0157 18.1559Z" fill="#EEBE14"/>
<path d="M26.9126 17.754C27.0078 17.9592 26.9157 18.2014 26.7071 18.295C26.4984 18.3886 26.2521 18.2982 26.1569 18.093C26.0617 17.8878 26.1537 17.6456 26.3624 17.552C26.5711 17.4584 26.8174 17.5488 26.9126 17.754Z" fill="#EEBE14"/>
<path d="M27.1576 15.2042C27.2528 15.4094 27.1608 15.6516 26.9521 15.7452C26.7435 15.8388 26.4971 15.7484 26.402 15.5432C26.3068 15.338 26.3988 15.0958 26.6075 15.0022C26.8161 14.9086 27.0624 14.999 27.1576 15.2042Z" fill="#EEBE14"/>
<path d="M25.8723 16.8739C25.9675 17.0791 25.8755 17.3213 25.6669 17.4149C25.4582 17.5085 25.2119 17.418 25.1167 17.2128C25.0215 17.0076 25.1135 16.7654 25.3222 16.6718C25.5308 16.5783 25.7772 16.6687 25.8723 16.8739Z" fill="#EEBE14"/>
<path d="M26.2119 21.0372C26.3071 21.2424 26.2151 21.4846 26.0064 21.5782C25.7977 21.6718 25.5514 21.5814 25.4562 21.3762C25.361 21.171 25.453 20.9288 25.6617 20.8352C25.8704 20.7416 26.1167 20.832 26.2119 21.0372Z" fill="#EEBE14"/>
<path d="M24.323 23.4471C24.411 23.6368 24.3259 23.8606 24.1331 23.9471C23.9402 24.0336 23.7126 23.95 23.6246 23.7604C23.5366 23.5707 23.6217 23.3469 23.8145 23.2604C24.0074 23.1739 24.235 23.2575 24.323 23.4471Z" fill="#EEBE14"/>
<path d="M25.2264 22.4225C25.2802 22.5385 25.2282 22.6755 25.1102 22.7284C24.9922 22.7813 24.8529 22.7302 24.7991 22.6141C24.7452 22.4981 24.7973 22.3611 24.9153 22.3082C25.0333 22.2553 25.1725 22.3065 25.2264 22.4225Z" fill="#EEBE14"/>
<path d="M23.5665 20.5322C23.6397 20.69 23.569 20.8763 23.4084 20.9483C23.2479 21.0203 23.0584 20.9507 22.9852 20.7929C22.912 20.635 22.9828 20.4487 23.1433 20.3767C23.3038 20.3047 23.4933 20.3743 23.5665 20.5322Z" fill="#EEBE14"/>
<path d="M25.9957 15.5759C26.0689 15.7337 25.9982 15.92 25.8376 15.992C25.6771 16.064 25.4876 15.9944 25.4144 15.8366C25.3412 15.6787 25.412 15.4924 25.5725 15.4204C25.733 15.3484 25.9225 15.418 25.9957 15.5759Z" fill="#EEBE14"/>
<path d="M26.9544 16.7341C27.0276 16.8919 26.9568 17.0782 26.7963 17.1502C26.6358 17.2222 26.4463 17.1526 26.3731 16.9948C26.2999 16.8369 26.3707 16.6506 26.5312 16.5786C26.6917 16.5066 26.8812 16.5762 26.9544 16.7341Z" fill="#EEBE14"/>
<path d="M23.1572 22.7529C23.2304 22.9107 23.1596 23.097 22.9991 23.169C22.8386 23.241 22.6491 23.1714 22.5759 23.0136C22.5027 22.8557 22.5734 22.6694 22.7339 22.5974C22.8945 22.5254 23.0839 22.595 23.1572 22.7529Z" fill="#EEBE14"/>
<path d="M22.9762 24.5832C23.0495 24.741 22.9787 24.9273 22.8182 24.9993C22.6577 25.0713 22.4682 25.0017 22.395 24.8439C22.3217 24.6861 22.3925 24.4997 22.553 24.4277C22.7136 24.3558 22.903 24.4253 22.9762 24.5832Z" fill="#EEBE14"/>
<path fill-rule="evenodd" clip-rule="evenodd" d="M15.3155 10.4963C16.4675 10.0856 17.7265 10.1579 18.7615 10.3757C19.7668 10.5871 20.6177 10.8946 21.3487 11.3772C22.0918 11.8678 22.6061 12.4702 23.0302 13.1143C23.5345 13.8799 23.312 14.9026 22.5333 15.3984C21.7547 15.8941 20.7147 15.6754 20.2105 14.9097C19.9487 14.5122 19.7305 14.2876 19.4762 14.1197C19.2098 13.9438 18.7986 13.7615 18.0587 13.6058C17.3486 13.4564 16.7925 13.4834 16.4606 13.6017C16.3143 13.6539 16.233 13.7153 16.1811 13.7729C16.1311 13.8284 16.0536 13.9404 16.0023 14.1761C15.951 14.4117 15.9751 14.5451 15.9977 14.6158C16.0211 14.6893 16.0698 14.7781 16.1815 14.8845C16.4351 15.126 16.9313 15.3743 17.6415 15.5237C18.6765 15.7415 19.8554 16.182 20.7356 17.0202C21.7025 17.9409 22.1986 19.2493 21.8628 20.7926C21.527 22.3359 20.5299 23.3302 19.2646 23.7813C18.1127 24.192 16.8537 24.1197 15.8186 23.9019C13.6606 23.448 12.2041 22.3034 11.4987 21.0804C11.0411 20.2869 11.3243 19.2789 12.1312 18.8289C12.9381 18.379 13.9632 18.6574 14.4208 19.4509C14.5989 19.7596 15.1892 20.3915 16.5214 20.6718C17.2315 20.8212 17.7877 20.7942 18.1195 20.6759C18.2658 20.6237 18.3471 20.5623 18.3991 20.5047C18.4491 20.4493 18.5266 20.3372 18.5778 20.1016C18.6291 19.8659 18.605 19.7325 18.5824 19.6618C18.559 19.5883 18.5104 19.4995 18.3986 19.3931C18.145 19.1516 17.6488 18.9033 16.9387 18.7539C15.9037 18.5361 14.7248 18.0956 13.8445 17.2574C12.8777 16.3367 12.3816 15.0284 12.7173 13.485C13.0531 11.9417 14.0502 10.9474 15.3155 10.4963Z" fill="#C37808"/>
<path fill-rule="evenodd" clip-rule="evenodd" d="M19.3216 7.80158C20.2287 7.99241 20.8067 8.8702 20.6127 9.76218L20.0856 12.1848C19.8915 13.0768 18.9988 13.6452 18.0917 13.4544C17.1846 13.2635 16.6065 12.3857 16.8006 11.4938L17.3277 9.07113C17.5218 8.17915 18.4144 7.61075 19.3216 7.80158Z" fill="#C37808"/>
<path fill-rule="evenodd" clip-rule="evenodd" d="M16.5214 20.6717C17.4285 20.8625 18.0065 21.7403 17.8125 22.6323L17.2854 25.0549C17.0913 25.9469 16.1987 26.5153 15.2915 26.3245C14.3844 26.1336 13.8064 25.2559 14.0004 24.3639L14.5275 21.9413C14.7216 21.0493 15.6143 20.4809 16.5214 20.6717Z" fill="#C37808"/>
<path fill-rule="evenodd" clip-rule="evenodd" d="M15.6733 11.4667C16.569 11.1474 17.6083 11.1887 18.5418 11.3851C19.4642 11.5791 20.1777 11.8475 20.7635 12.2342C21.3538 12.6239 21.7756 13.1083 22.149 13.6753C22.3381 13.9624 22.2547 14.3459 21.9627 14.5318C21.6707 14.7178 21.2807 14.6357 21.0916 14.3486C20.7791 13.8741 20.4683 13.5314 20.0613 13.2626C19.6497 12.9909 19.1011 12.7695 18.2783 12.5964C17.4666 12.4256 16.6908 12.4216 16.1027 12.6313C15.557 12.8258 15.1385 13.2116 14.9757 13.9601C14.8128 14.7086 15.0342 15.2289 15.4511 15.626C15.9006 16.054 16.6101 16.3624 17.4218 16.5331C18.3553 16.7295 19.3208 17.11 20.0052 17.7617C20.7221 18.4444 21.0934 19.3946 20.8362 20.5766C20.579 21.7587 19.8449 22.4763 18.9067 22.8108C18.011 23.1302 16.9717 23.0889 16.0382 22.8925C14.1382 22.4928 12.9524 21.5084 12.4118 20.5711C12.2402 20.2736 12.3464 19.8956 12.649 19.7268C12.9516 19.5581 13.336 19.6625 13.5076 19.96C13.8504 20.5545 14.7114 21.3466 16.3017 21.6812C17.1134 21.8519 17.8892 21.856 18.4773 21.6463C19.023 21.4517 19.4415 21.0659 19.6043 20.3175C19.7672 19.569 19.5458 19.0486 19.1289 18.6515C18.6795 18.2236 17.9699 17.9152 17.1582 17.7444C16.2247 17.548 15.2592 17.1676 14.5748 16.5158C13.8579 15.8332 13.4867 14.883 13.7438 13.7009C14.001 12.5189 14.7351 11.8012 15.6733 11.4667Z" fill="#FFB423"/>
<path fill-rule="evenodd" clip-rule="evenodd" d="M19.1019 8.81097C19.4421 8.88253 19.6588 9.2117 19.5861 9.54619L19.059 11.9688C18.9862 12.3033 18.6514 12.5165 18.3113 12.4449C17.9711 12.3733 17.7543 12.0442 17.8271 11.7097L18.3542 9.28705C18.427 8.95256 18.7617 8.73941 19.1019 8.81097Z" fill="#FFB423"/>
<path fill-rule="evenodd" clip-rule="evenodd" d="M16.3018 21.6811C16.642 21.7526 16.8587 22.0818 16.7859 22.4163L16.2589 24.8389C16.1861 25.1734 15.8513 25.3866 15.5112 25.315C15.171 25.2435 14.9542 24.9143 15.027 24.5798L15.5541 22.1572C15.6269 21.8227 15.9616 21.6095 16.3018 21.6811Z" fill="#FFB423"/>
<path fill-rule="evenodd" clip-rule="evenodd" d="M5.54874 13.1383C5.3315 13.0585 5.2212 12.8206 5.30238 12.607C6.75179 8.79295 9.99768 5.8412 14.0289 4.74714C14.2525 4.68647 14.4837 4.81549 14.5454 5.03531C14.6071 5.25513 14.4759 5.48252 14.2524 5.54319C10.4826 6.56628 7.44495 9.32814 6.08907 12.8961C6.00789 13.1097 5.76598 13.2181 5.54874 13.1383Z" fill="#FFCF72"/>
<path fill-rule="evenodd" clip-rule="evenodd" d="M27.5425 23.3444C27.7385 23.4662 27.7971 23.7212 27.6732 23.914C26.691 25.443 25.3886 26.7531 23.8585 27.7535C23.6654 27.8797 23.4047 27.8281 23.2763 27.6382C23.1479 27.4484 23.2004 27.1921 23.3935 27.0658C24.8253 26.1297 26.0441 24.9036 26.9632 23.473C27.087 23.2802 27.3464 23.2226 27.5425 23.3444Z" fill="#FFCF72"/>
<path fill-rule="evenodd" clip-rule="evenodd" d="M10.1745 7.52101C10.1744 7.52107 10.1746 7.52096 10.1745 7.52101L9.94158 7.17745C10.1745 7.52101 10.1744 7.52105 10.1745 7.52101L10.173 7.52201L10.1645 7.52771C10.1565 7.53306 10.1441 7.54149 10.1277 7.5529C10.0947 7.57572 10.0456 7.61041 9.98357 7.65617C9.85936 7.74777 9.68403 7.88319 9.48324 8.05594C9.07933 8.40347 8.58359 8.89256 8.1914 9.47102C8.06276 9.66077 7.80205 9.71204 7.60909 9.58554C7.41613 9.45905 7.36399 9.20269 7.49263 9.01295C7.94027 8.35269 8.4943 7.80952 8.93021 7.43446C9.14934 7.24592 9.34143 7.09747 9.47967 6.99552C9.54885 6.9445 9.60472 6.90499 9.64396 6.87781C9.66358 6.86422 9.67905 6.8537 9.68997 6.84635L9.70288 6.83771L9.70668 6.83519L9.70789 6.83439L9.70833 6.83411C9.7084 6.83406 9.70865 6.83389 9.94158 7.17745L9.70833 6.83411C9.90129 6.70761 10.1623 6.75867 10.291 6.94841C10.4195 7.13807 10.3673 7.39446 10.1745 7.52101Z" fill="#FFE9AF"/>
<path fill-rule="evenodd" clip-rule="evenodd" d="M11.8541 9.58547C11.854 9.58552 11.8542 9.58541 11.8541 9.58547L11.6212 9.24191C11.8541 9.58547 11.8541 9.5855 11.8541 9.58547L11.8526 9.58647L11.8441 9.59217C11.8362 9.59752 11.8237 9.60595 11.8073 9.61735C11.7743 9.64017 11.7252 9.67487 11.6632 9.72062C11.539 9.81222 11.3637 9.94764 11.1629 10.1204C10.759 10.4679 10.2632 10.957 9.87103 11.5355C9.74239 11.7252 9.48168 11.7765 9.28872 11.65C9.09575 11.5235 9.04361 11.2671 9.17225 11.0774C9.61989 10.4171 10.1739 9.87397 10.6098 9.49891C10.829 9.31037 11.0211 9.16192 11.1593 9.05997C11.2285 9.00895 11.2843 8.96945 11.3236 8.94227C11.3432 8.92867 11.3587 8.91815 11.3696 8.9108L11.3825 8.90216L11.3863 8.89965L11.3875 8.89884L11.388 8.89856C11.388 8.89851 11.3883 8.89835 11.6212 9.24191L11.388 8.89856C11.5809 8.77206 11.8419 8.82313 11.9706 9.01287C12.0992 9.20253 12.0469 9.45891 11.8541 9.58547Z" fill="white"/>
</svg>
