<svg width="32" height="32" viewBox="0 0 32 32" fill="none" xmlns="http://www.w3.org/2000/svg">
<path d="M0.842101 15.9999L16 31.1578L31.1579 15.9999L16 0.842042L0.842101 15.9999Z" fill="#D1FA2D"/>
<path fill-rule="evenodd" clip-rule="evenodd" d="M0.246646 15.4045C-0.0822163 15.7334 -0.0822163 16.2666 0.246646 16.5955L15.4045 31.7534C15.7334 32.0822 16.2666 32.0822 16.5955 31.7534L31.7534 16.5955C31.9113 16.4375 32 16.2233 32 16C32 15.7767 31.9113 15.5625 31.7534 15.4045L16.5955 0.246648C16.4375 0.0887222 16.2233 7.3202e-07 16 7.21943e-07C15.7767 7.62059e-07 15.5625 0.0887223 15.4045 0.246648L0.246646 15.4045ZM0.842105 16L16 31.1579L31.1579 16L16 0.842106L0.842105 16Z" fill="#384B00"/>
<path d="M20.6316 19.7895C20.6316 20.022 20.4431 20.2105 20.2105 20.2105C19.978 20.2105 19.7895 20.022 19.7895 19.7895C19.7895 19.5569 19.978 19.3684 20.2105 19.3684C20.4431 19.3684 20.6316 19.5569 20.6316 19.7895Z" fill="#B7DD21"/>
<path d="M20.6316 21.4738C20.6316 21.7063 20.4431 21.8948 20.2105 21.8948C19.978 21.8948 19.7895 21.7063 19.7895 21.4738C19.7895 21.2412 19.978 21.0527 20.2105 21.0527C20.4431 21.0527 20.6316 21.2412 20.6316 21.4738Z" fill="#B7DD21"/>
<path d="M18.9474 23.1579C18.9474 23.3904 18.7589 23.5789 18.5263 23.5789C18.2938 23.5789 18.1053 23.3904 18.1053 23.1579C18.1053 22.9253 18.2938 22.7368 18.5263 22.7368C18.7589 22.7368 18.9474 22.9253 18.9474 23.1579Z" fill="#B7DD21"/>
<path d="M17.6843 24.8422C17.6843 25.0747 17.4958 25.2632 17.2632 25.2632C17.0307 25.2632 16.8422 25.0747 16.8422 24.8422C16.8422 24.6097 17.0307 24.4211 17.2632 24.4211C17.4958 24.4211 17.6843 24.6097 17.6843 24.8422Z" fill="#B7DD21"/>
<path d="M18.5263 18.5265C18.5263 18.7591 18.3378 18.9476 18.1053 18.9476C17.8727 18.9476 17.6842 18.7591 17.6842 18.5265C17.6842 18.294 17.8727 18.1055 18.1053 18.1055C18.3378 18.1055 18.5263 18.294 18.5263 18.5265Z" fill="#B7DD21"/>
<path d="M22.7368 17.2631C22.7368 17.4956 22.5483 17.6841 22.3158 17.6841C22.0832 17.6841 21.8947 17.4956 21.8947 17.2631C21.8947 17.0306 22.0832 16.842 22.3158 16.842C22.5483 16.842 22.7368 17.0306 22.7368 17.2631Z" fill="#B7DD21"/>
<path d="M20.6316 17.4736C20.6316 17.8224 20.3489 18.1052 20 18.1052C19.6512 18.1052 19.3685 17.8224 19.3685 17.4736C19.3685 17.1248 19.6512 16.842 20 16.842C20.3489 16.842 20.6316 17.1248 20.6316 17.4736Z" fill="#B7DD21"/>
<path d="M18.9474 21.2632C18.9474 21.612 18.6646 21.8947 18.3158 21.8947C17.967 21.8947 17.6842 21.612 17.6842 21.2632C17.6842 20.9144 17.967 20.6316 18.3158 20.6316C18.6646 20.6316 18.9474 20.9144 18.9474 21.2632Z" fill="#B7DD21"/>
<path d="M0.842101 15.9999L16 0.842042L31.1579 15.9999L0.842101 15.9999Z" fill="#E1FF6B"/>
<path fill-rule="evenodd" clip-rule="evenodd" d="M15.9671 2.56556C16.178 2.6637 16.2693 2.91416 16.1712 3.12497L10.487 15.3355C10.3888 15.5463 10.1384 15.6377 9.92754 15.5395C9.71672 15.4414 9.62538 15.1909 9.72352 14.9801L15.4077 2.76958C15.5059 2.55876 15.7563 2.46742 15.9671 2.56556Z" fill="#F8FFDA"/>
<path d="M8.42105 15.9999L16 31.1578L0.842103 15.9999L16 0.842041L8.42105 15.9999Z" fill="#E3E73C"/>
<path d="M4.21052 15.9999L16 31.1578L0.842103 15.9999L16 0.842041L4.21052 15.9999Z" fill="#FFF9C1"/>
<path d="M8.42105 15.9999L16 0.842041L0.842103 15.9999L8.42105 15.9999Z" fill="#F0F36F"/>
<path d="M4.21052 15.9999L16 0.842041L0.842103 15.9999L4.21052 15.9999Z" fill="#FEF9CF"/>
<path d="M23.5789 15.9999L16 31.1578L31.1579 15.9999L16 0.842041L23.5789 15.9999Z" fill="#63C038"/>
<path d="M23.5789 15.9999L16 0.842041L31.1579 15.9999L23.5789 15.9999Z" fill="#75D04A"/>
<path d="M27.7895 15.9999L16 31.1578L31.1579 15.9999L16 0.842041L27.7895 15.9999Z" fill="#AFD02A"/>
<path d="M27.7895 15.9999L16 0.842041L31.1579 15.9999L27.7895 15.9999Z" fill="#C5E447"/>
<path fill-rule="evenodd" clip-rule="evenodd" d="M9.12945 8.53438C9.29945 8.69305 9.30864 8.95949 9.14997 9.12949L3.25523 15.4453C3.09657 15.6153 2.83013 15.6245 2.66013 15.4658C2.49013 15.3071 2.48094 15.0407 2.63961 14.8707L8.53435 8.5549C8.69301 8.3849 8.95945 8.37572 9.12945 8.53438Z" fill="#FFFEF9"/>
</svg>
