<svg width="19" height="25" viewBox="0 0 19 25" fill="none" xmlns="http://www.w3.org/2000/svg">
<path d="M9.37326 7.8125C11.5315 7.8125 13.2795 6.06445 13.2795 3.90625C13.2795 1.74805 11.5315 0 9.37326 0C7.21506 0 5.46701 1.74805 5.46701 3.90625C5.46701 6.06445 7.21506 7.8125 9.37326 7.8125ZM6.76584 19.9609L8.01584 18.3984L5.01291 15.8984L2.7717 18.7012C2.21506 19.3945 2.20041 20.3809 2.73264 21.0938L5.07639 24.2188C5.46213 24.7314 6.04807 25 6.63889 25C7.04416 25 7.4592 24.873 7.81076 24.6094C8.67502 23.9648 8.84592 22.7393 8.20139 21.875L6.76584 19.9609ZM13.7336 15.8984L10.7307 18.3984L11.9807 19.9609L10.5451 21.875C9.90061 22.7393 10.0715 23.9648 10.9358 24.6094C11.2873 24.873 11.6975 25 12.1076 25C12.7033 25 13.2893 24.7314 13.6701 24.2188L16.0139 21.0938C16.5461 20.3809 16.5315 19.3945 15.9748 18.7012L13.7336 15.8984V15.8984ZM18.3918 7.08008C17.7717 6.19629 16.5559 5.98633 15.6721 6.60156L13.6897 7.99316C11.1164 9.7998 7.62522 9.7998 5.05686 7.99316L3.07443 6.60645C2.19065 5.98633 0.974825 6.20117 0.354708 7.08008C-0.265409 7.96387 -0.0505655 9.17969 0.828341 9.7998L2.81076 11.1914C3.64084 11.7725 4.53928 12.2119 5.46701 12.5537V14.0625H13.2795V12.5586C14.2072 12.2168 15.1057 11.7773 15.9358 11.1963L17.9182 9.80469C18.802 9.17969 19.0119 7.96387 18.3918 7.08008Z" fill="black"/>
</svg>
