<svg width="25" height="25" viewBox="0 0 25 25" fill="none" xmlns="http://www.w3.org/2000/svg">
<path d="M10.3662 0.112305C8.22754 0.419922 6.15723 1.28906 4.39941 2.73926L8.17871 6.51855C9.53613 4.77051 10.293 2.55371 10.3662 0.112305V0.112305ZM12.1094 10.4492L19.8193 2.73926C17.749 1.03027 15.249 0.126953 12.7148 0C12.6562 3.12012 11.665 5.97168 9.84863 8.18848L12.1094 10.4492ZM2.73926 4.39941C1.28906 6.15723 0.419922 8.22754 0.112305 10.3662C2.55371 10.293 4.77539 9.53613 6.51855 8.17871L2.73926 4.39941ZM16.0303 14.3701C18.2422 12.5586 21.0938 11.5674 24.2188 11.5039C24.0918 8.96973 23.1885 6.46973 21.4795 4.39941L13.7695 12.1094L16.0303 14.3701V14.3701ZM12.1094 13.7695L4.39941 21.4795C6.46973 23.1836 8.96973 24.0918 11.5039 24.2188C11.5674 21.0938 12.5586 18.2422 14.3701 16.0303L12.1094 13.7695ZM21.4795 19.8193C22.9297 18.0615 23.7988 15.9912 24.1064 13.8525C21.6602 13.9307 19.4434 14.6875 17.7002 16.04L21.4795 19.8193ZM8.18848 9.84863C5.97168 11.665 3.12012 12.6611 0 12.7148C0.126953 15.249 1.03027 17.749 2.73926 19.8193L10.4492 12.1094L8.18848 9.84863ZM13.8525 24.1064C15.9912 23.7988 18.0615 22.9297 19.8193 21.4795L16.04 17.7002C14.6875 19.4434 13.9307 21.665 13.8525 24.1064Z" fill="black"/>
</svg>
