<svg width="25" height="22" viewBox="0 0 25 22" fill="none" xmlns="http://www.w3.org/2000/svg">
<path d="M23.8281 10.9375H3.90625V3.90625C3.90625 3.04468 4.60718 2.34375 5.46875 2.34375C6.023 2.34375 6.51035 2.63403 6.78784 3.07031C5.98257 4.30112 6.0707 5.9793 7.12173 7.12476C6.91782 7.35488 6.92539 7.70659 7.1457 7.9269L7.69814 8.47935C7.92695 8.70815 8.29795 8.70815 8.52681 8.47935L13.1669 3.83926C13.3958 3.61045 13.3958 3.23945 13.1669 3.0106L12.6145 2.45815C12.3942 2.23784 12.0425 2.23032 11.8124 2.43418C10.9359 1.63003 9.74722 1.38784 8.67866 1.68394C7.9727 0.667334 6.79746 0 5.46875 0C3.31484 0 1.5625 1.75234 1.5625 3.90625V10.9375H1.17188C0.524658 10.9375 0 11.4622 0 12.1094V12.8906C0 13.5378 0.524658 14.0625 1.17188 14.0625H1.5625V15.625C1.5625 17.0132 2.16611 18.2602 3.125 19.1185V20.7031C3.125 21.3503 3.64966 21.875 4.29688 21.875H5.07812C5.72534 21.875 6.25 21.3503 6.25 20.7031V20.3125H18.75V20.7031C18.75 21.3503 19.2747 21.875 19.9219 21.875H20.7031C21.3503 21.875 21.875 21.3503 21.875 20.7031V19.1185C22.8339 18.2602 23.4375 17.0132 23.4375 15.625V14.0625H23.8281C24.4753 14.0625 25 13.5378 25 12.8906V12.1094C25 11.4622 24.4753 10.9375 23.8281 10.9375Z" fill="black"/>
</svg>
