<svg width="25" height="20" viewBox="0 0 25 20" fill="none" xmlns="http://www.w3.org/2000/svg">
<path d="M15.625 3.75C15.9958 3.75 16.3584 3.64003 16.6667 3.43401C16.975 3.22798 17.2154 2.93514 17.3573 2.59253C17.4992 2.24992 17.5363 1.87292 17.464 1.50921C17.3916 1.14549 17.2131 0.811399 16.9508 0.549176C16.6886 0.286952 16.3545 0.108376 15.9908 0.0360284C15.6271 -0.0363188 15.2501 0.000812411 14.9075 0.142727C14.5649 0.284641 14.272 0.524964 14.066 0.833307C13.86 1.14165 13.75 1.50416 13.75 1.875C13.75 2.37228 13.9475 2.8492 14.2992 3.20083C14.6508 3.55246 15.1277 3.75 15.625 3.75V3.75ZM15.4688 8.47656C15.6904 8.65406 15.966 8.75053 16.25 8.75H18.75C19.0815 8.75 19.3995 8.6183 19.6339 8.38388C19.8683 8.14946 20 7.83152 20 7.5C20 7.16848 19.8683 6.85054 19.6339 6.61612C19.3995 6.3817 19.0815 6.25 18.75 6.25H16.6883L13.9063 4.02344C13.6792 3.84115 13.3955 3.74402 13.1044 3.74887C12.8132 3.75372 12.533 3.86025 12.3121 4.05L7.93711 7.8C7.79057 7.92564 7.67512 8.08352 7.5998 8.26125C7.52449 8.43899 7.49136 8.63175 7.50301 8.82443C7.51467 9.01711 7.57079 9.20447 7.66698 9.37183C7.76317 9.53919 7.89681 9.682 8.05742 9.78906L11.25 11.9188V16.25C11.25 16.5815 11.3817 16.8995 11.6161 17.1339C11.8505 17.3683 12.1685 17.5 12.5 17.5C12.8315 17.5 13.1495 17.3683 13.3839 17.1339C13.6183 16.8995 13.75 16.5815 13.75 16.25V11.25C13.75 11.0443 13.6991 10.8417 13.602 10.6603C13.5049 10.4789 13.3646 10.3243 13.1934 10.2102L11.5777 9.1332L13.8531 7.1832L15.4688 8.47656ZM20 10C19.0111 10 18.0444 10.2932 17.2222 10.8427C16.3999 11.3921 15.759 12.173 15.3806 13.0866C15.0022 14.0002 14.9031 15.0055 15.0961 15.9755C15.289 16.9454 15.7652 17.8363 16.4645 18.5355C17.1637 19.2348 18.0546 19.711 19.0246 19.9039C19.9945 20.0969 20.9998 19.9978 21.9134 19.6194C22.827 19.241 23.6079 18.6001 24.1574 17.7779C24.7068 16.9556 25 15.9889 25 15C25 13.6739 24.4732 12.4021 23.5355 11.4645C22.5979 10.5268 21.3261 10 20 10V10ZM20 17.5C19.5055 17.5 19.0222 17.3534 18.6111 17.0787C18.2 16.804 17.8795 16.4135 17.6903 15.9567C17.5011 15.4999 17.4516 14.9972 17.548 14.5123C17.6445 14.0273 17.8826 13.5819 18.2322 13.2322C18.5819 12.8826 19.0273 12.6445 19.5123 12.548C19.9972 12.4516 20.4999 12.5011 20.9567 12.6903C21.4135 12.8795 21.804 13.2 22.0787 13.6111C22.3534 14.0222 22.5 14.5055 22.5 15C22.5 15.663 22.2366 16.2989 21.7678 16.7678C21.2989 17.2366 20.663 17.5 20 17.5V17.5ZM5 10C4.0111 10 3.0444 10.2932 2.22215 10.8427C1.39991 11.3921 0.759043 12.173 0.380605 13.0866C0.00216641 14.0002 -0.0968503 15.0055 0.0960758 15.9755C0.289002 16.9454 0.765206 17.8363 1.46447 18.5355C2.16373 19.2348 3.05465 19.711 4.02455 19.9039C4.99446 20.0969 5.99979 19.9978 6.91342 19.6194C7.82705 19.241 8.60794 18.6001 9.15735 17.7779C9.70676 16.9556 10 15.9889 10 15C10 13.6739 9.47322 12.4021 8.53554 11.4645C7.59785 10.5268 6.32608 10 5 10V10ZM5 17.5C4.50555 17.5 4.0222 17.3534 3.61108 17.0787C3.19995 16.804 2.87952 16.4135 2.6903 15.9567C2.50108 15.4999 2.45158 14.9972 2.54804 14.5123C2.6445 14.0273 2.8826 13.5819 3.23224 13.2322C3.58187 12.8826 4.02732 12.6445 4.51228 12.548C4.99723 12.4516 5.4999 12.5011 5.95671 12.6903C6.41353 12.8795 6.80397 13.2 7.07868 13.6111C7.35338 14.0222 7.5 14.5055 7.5 15C7.5 15.663 7.23661 16.2989 6.76777 16.7678C6.29893 17.2366 5.66304 17.5 5 17.5Z" fill="black"/>
</svg>
