<svg width="22" height="25" viewBox="0 0 22 25" fill="none" xmlns="http://www.w3.org/2000/svg">
<path d="M21.875 18.75C20.5068 18.75 20.3486 17.1875 18.2373 17.1875C16.1167 17.1875 15.9509 18.75 14.5874 18.75C13.2351 18.75 13.0516 17.1875 10.9375 17.1875C8.84561 17.1875 8.63193 18.75 7.2998 18.75C5.92539 18.75 5.77627 17.1875 3.6499 17.1875C1.52358 17.1875 1.37192 18.75 0 18.75V14.8438C0 13.5498 1.0498 12.5 2.34375 12.5H3.125V5.46875H6.25V12.5H9.375V5.46875H12.5V12.5H15.625V5.46875H18.75V12.5H19.5312C20.8252 12.5 21.875 13.5498 21.875 14.8438V18.75ZM21.875 25H0V20.3125C2.11699 20.3125 2.28354 18.75 3.6499 18.75C5.0147 18.75 5.17593 20.3125 7.2998 20.3125C9.39175 20.3125 9.60532 18.75 10.9375 18.75C12.3119 18.75 12.461 20.3125 14.5874 20.3125C16.7044 20.3125 16.8709 18.75 18.2373 18.75C19.5795 18.75 19.7633 20.3125 21.875 20.3125V25ZM4.6875 4.6875C3.8208 4.6875 3.125 3.9917 3.125 3.125C3.125 1.61133 4.6875 2.00195 4.6875 0C5.27344 0 6.25 1.44043 6.25 2.73438C6.25 4.02832 5.5542 4.6875 4.6875 4.6875ZM10.9375 4.6875C10.0708 4.6875 9.375 3.9917 9.375 3.125C9.375 1.61133 10.9375 2.00195 10.9375 0C11.5234 0 12.5 1.44043 12.5 2.73438C12.5 4.02832 11.8042 4.6875 10.9375 4.6875ZM17.1875 4.6875C16.3208 4.6875 15.625 3.9917 15.625 3.125C15.625 1.61133 17.1875 2.00195 17.1875 0C17.7734 0 18.75 1.44043 18.75 2.73438C18.75 4.02832 18.0542 4.6875 17.1875 4.6875Z" fill="black"/>
</svg>
