<svg width="25" height="13" viewBox="0 0 25 13" fill="none" xmlns="http://www.w3.org/2000/svg">
<path d="M23.3938 5.80312C24.3781 5.31094 25 4.30469 25 3.2043V2.90586C25 1.30078 23.6992 0 22.0941 0C20.8434 0 19.7332 0.800391 19.3375 1.98672C19.0375 2.88633 18.8844 3.75 17.8488 3.75H7.15078C6.08125 3.75 5.91719 2.75234 5.66211 1.98672C5.2668 0.800391 4.15625 0 2.90586 0C1.30078 0 0 1.30078 0 2.90586V3.2043C0 4.30469 0.621875 5.31094 1.60625 5.80312C1.97461 5.98711 1.97461 6.51289 1.60625 6.69688C0.621875 7.18906 0 8.19531 0 9.2957V9.59414C0 11.1992 1.30078 12.5 2.90547 12.5C4.15625 12.5 5.26641 11.6996 5.66211 10.5133C5.96211 9.61367 6.11523 8.75 7.15078 8.75H17.8488C18.9184 8.75 19.0824 9.74766 19.3375 10.5133C19.7332 11.6996 20.8437 12.5 22.0941 12.5C23.6988 12.5 24.9996 11.1992 24.9996 9.59414V9.2957C24.9996 8.19492 24.3777 7.18906 23.3934 6.69688C23.0254 6.51289 23.0254 5.98711 23.3938 5.80312V5.80312Z" fill="black"/>
</svg>
