<svg width="19" height="25" viewBox="0 0 19 25" fill="none" xmlns="http://www.w3.org/2000/svg">
<path d="M4.75259 24.7542C-1.58891 18.4127 -1.57949 8.14033 4.75259 1.80825C5.03082 1.53002 5.46192 1.48442 5.79083 1.68998L8.95572 3.66816C9.1226 3.77245 9.24752 3.93208 9.30865 4.11913C9.36978 4.30619 9.36323 4.50878 9.29014 4.6915L7.70772 8.6476C7.64012 8.8166 7.51941 8.95903 7.3638 9.05344C7.20818 9.14785 7.02609 9.1891 6.84498 9.17099L4.11988 8.89853C3.092 11.7433 3.11343 14.8786 4.11988 17.6639L6.84503 17.3914C7.02614 17.3733 7.20823 17.4145 7.36384 17.509C7.51946 17.6034 7.64017 17.7458 7.70777 17.9148L9.29019 21.8709C9.36327 22.0537 9.36982 22.2562 9.30869 22.4433C9.24756 22.6304 9.12264 22.79 8.95577 22.8943L5.79088 24.8725C5.62993 24.973 5.43965 25.0161 5.25109 24.9946C5.06252 24.9731 4.8868 24.8884 4.75259 24.7542ZM12.0667 4.66176C12.6444 5.64062 12.6444 6.85942 12.0667 7.83828C11.8738 8.16508 11.4267 8.2269 11.1527 7.9643L10.861 7.68471C10.67 7.5017 10.627 7.21489 10.7506 6.9811C10.8696 6.75578 10.9318 6.50483 10.9318 6.25002C10.9318 5.99521 10.8696 5.74426 10.7506 5.51894C10.6269 5.28515 10.67 4.99833 10.861 4.81533L11.1527 4.53574C11.4267 4.27314 11.8738 4.33496 12.0667 4.66176ZM16.5485 0.209272C19.485 3.70556 19.4827 8.79726 16.5485 12.2907C16.33 12.5508 15.9367 12.5713 15.6915 12.3363L15.4084 12.0649C15.1857 11.8515 15.1653 11.502 15.3629 11.2652C17.7891 8.35805 17.7871 4.13954 15.3629 1.23481C15.1653 0.997993 15.1856 0.648481 15.4084 0.435053L15.6915 0.163715C15.9367 -0.0712945 16.33 -0.0508355 16.5485 0.209272ZM14.3038 2.40366C16.064 4.66547 16.0669 7.83085 14.3038 10.0963C14.0894 10.3718 13.6838 10.4016 13.4319 10.16L13.1478 9.88759C12.933 9.68159 12.9038 9.34584 13.0851 9.10971C14.3808 7.42202 14.3807 5.07788 13.0851 3.39028C12.9038 3.15414 12.933 2.81845 13.1478 2.6124L13.4319 2.33998C13.6838 2.09843 14.0894 2.12822 14.3038 2.40366Z" fill="black"/>
</svg>
