<svg width="25" height="18" viewBox="0 0 25 18" fill="none" xmlns="http://www.w3.org/2000/svg">
<path d="M21.25 6.25H20.625L16.3758 0.938281C16.1415 0.645541 15.8444 0.409222 15.5065 0.24681C15.1685 0.0843969 14.7984 4.68788e-05 14.4234 0H6.06758C5.04531 0 4.12617 0.622266 3.74648 1.57148L1.875 6.33828C0.798438 6.61719 0 7.58633 0 8.75V13.125C0 13.4703 0.279687 13.75 0.625 13.75H2.5C2.5 15.8211 4.17891 17.5 6.25 17.5C8.32109 17.5 10 15.8211 10 13.75H15C15 15.8211 16.6789 17.5 18.75 17.5C20.8211 17.5 22.5 15.8211 22.5 13.75H24.375C24.7203 13.75 25 13.4703 25 13.125V10C25 7.92891 23.3211 6.25 21.25 6.25ZM6.25 15.625C5.21602 15.625 4.375 14.784 4.375 13.75C4.375 12.716 5.21602 11.875 6.25 11.875C7.28398 11.875 8.125 12.716 8.125 13.75C8.125 14.784 7.28398 15.625 6.25 15.625ZM9.0625 6.25H4.56758L6.06758 2.5H9.0625V6.25ZM10.9375 6.25V2.5H14.4234L17.4234 6.25H10.9375ZM18.75 15.625C17.716 15.625 16.875 14.784 16.875 13.75C16.875 12.716 17.716 11.875 18.75 11.875C19.784 11.875 20.625 12.716 20.625 13.75C20.625 14.784 19.784 15.625 18.75 15.625Z" fill="black"/>
</svg>
