<svg width="25" height="20" viewBox="0 0 25 20" fill="none" xmlns="http://www.w3.org/2000/svg">
<path d="M18.143 9.63594L13.75 7V5H15.625C15.9703 5 16.25 4.72031 16.25 4.375V3.125C16.25 2.77969 15.9703 2.5 15.625 2.5H13.75V0.625C13.75 0.279687 13.4703 0 13.125 0H11.875C11.5297 0 11.25 0.279687 11.25 0.625V2.5H9.375C9.02969 2.5 8.75 2.77969 8.75 3.125V4.375C8.75 4.72031 9.02969 5 9.375 5H11.25V7L6.85703 9.63594C6.6719 9.74697 6.51868 9.90406 6.4123 10.0919C6.30592 10.2797 6.25 10.4919 6.25 10.7078V20H10V16.25C10 14.8691 11.1191 13.75 12.5 13.75C13.8809 13.75 15 14.8691 15 16.25V20H18.75V10.7078C18.75 10.2687 18.5195 9.86172 18.143 9.63594ZM0 15.4672V19.375C0 19.7203 0.279687 20 0.625 20H5V12.5L0.757422 14.318C0.532631 14.4145 0.341072 14.5748 0.20645 14.779C0.0718269 14.9833 4.96194e-05 15.2226 0 15.4672H0ZM24.2426 14.318L20 12.5V20H24.375C24.7203 20 25 19.7203 25 19.375V15.4672C25 14.9672 24.702 14.5152 24.2426 14.318Z" fill="black"/>
</svg>
