<svg width="22" height="22" viewBox="0 0 22 22" fill="none" xmlns="http://www.w3.org/2000/svg">
<path d="M13.5771 10.9375L21.7031 2.81104C21.9321 2.58203 21.9321 2.21094 21.7031 1.98242C20.1016 0.380859 17.5044 0.380859 15.9028 1.98242L10.2627 7.62305L9.04883 6.40918C9.25928 5.87598 9.375 5.29541 9.375 4.6875C9.375 2.09863 7.27637 0 4.6875 0C2.09863 0 0 2.09863 0 4.6875C0 7.27637 2.09863 9.375 4.6875 9.375C4.90918 9.375 5.12646 9.35938 5.33984 9.32959L6.94775 10.9375L5.33984 12.5454C5.12646 12.5156 4.90869 12.5 4.6875 12.5C2.09863 12.5 0 14.5986 0 17.1875C0 19.7764 2.09863 21.875 4.6875 21.875C7.27637 21.875 9.375 19.7764 9.375 17.1875C9.375 16.5796 9.25928 15.999 9.04883 15.4658L10.2627 14.252L15.9028 19.8926C17.5044 21.4941 20.1016 21.4941 21.7031 19.8926C21.9321 19.6641 21.9321 19.293 21.7031 19.064L13.5771 10.9375ZM4.6875 6.25C3.82617 6.25 3.125 5.54883 3.125 4.6875C3.125 3.82617 3.82617 3.125 4.6875 3.125C5.54883 3.125 6.25 3.82617 6.25 4.6875C6.25 5.54883 5.54883 6.25 4.6875 6.25ZM4.6875 18.75C3.82617 18.75 3.125 18.0488 3.125 17.1875C3.125 16.3262 3.82617 15.625 4.6875 15.625C5.54883 15.625 6.25 16.3262 6.25 17.1875C6.25 18.0488 5.54883 18.75 4.6875 18.75Z" fill="black"/>
</svg>
