<svg width="25" height="25" viewBox="0 0 25 25" fill="none" xmlns="http://www.w3.org/2000/svg">
<path d="M9.97499 0.245852C5.12147 1.19312 1.21034 5.09448 0.25331 9.93335C-1.55333 19.0642 6.68397 25.8709 12.89 24.9089C14.9017 24.5964 15.8881 22.2429 14.9652 20.4314C13.8373 18.2146 15.4486 15.6267 17.9389 15.6267H21.8305C23.5785 15.6267 24.9945 14.1814 24.9994 12.4382C24.975 4.74292 17.973 -1.31177 9.97499 0.245852ZM4.6869 15.6267C3.82265 15.6267 3.1244 14.9285 3.1244 14.0642C3.1244 13.2 3.82265 12.5017 4.6869 12.5017C5.55116 12.5017 6.2494 13.2 6.2494 14.0642C6.2494 14.9285 5.55116 15.6267 4.6869 15.6267ZM6.2494 9.37671C5.38515 9.37671 4.6869 8.67847 4.6869 7.81421C4.6869 6.94995 5.38515 6.25171 6.2494 6.25171C7.11366 6.25171 7.8119 6.94995 7.8119 7.81421C7.8119 8.67847 7.11366 9.37671 6.2494 9.37671ZM12.4994 6.25171C11.6351 6.25171 10.9369 5.55347 10.9369 4.68921C10.9369 3.82495 11.6351 3.12671 12.4994 3.12671C13.3637 3.12671 14.0619 3.82495 14.0619 4.68921C14.0619 5.55347 13.3637 6.25171 12.4994 6.25171ZM18.7494 9.37671C17.8851 9.37671 17.1869 8.67847 17.1869 7.81421C17.1869 6.94995 17.8851 6.25171 18.7494 6.25171C19.6137 6.25171 20.3119 6.94995 20.3119 7.81421C20.3119 8.67847 19.6137 9.37671 18.7494 9.37671Z" fill="black"/>
</svg>
