<svg width="26" height="13" viewBox="0 0 26 13" fill="none" xmlns="http://www.w3.org/2000/svg">
<path d="M18.7536 6.37682e-08H6.25089C5.22039 -0.000147126 4.20585 0.254514 3.29757 0.74131C2.3893 1.22811 1.61549 1.93193 1.04502 2.79013C0.474559 3.64833 0.125148 4.63427 0.027896 5.66017C-0.0693556 6.68607 0.0885702 7.7201 0.487613 8.6702C0.886657 9.62031 1.51443 10.457 2.31506 11.1058C3.11568 11.7546 4.06431 12.1953 5.07648 12.3888C6.08865 12.5823 7.13296 12.5225 8.11644 12.2148C9.09992 11.9071 9.99204 11.3609 10.7134 10.625H14.2884C15.0097 11.3608 15.9017 11.9069 16.885 12.2147C17.8684 12.5225 18.9126 12.5823 19.9246 12.389C20.9367 12.1956 21.8853 11.755 22.6859 11.1064C23.4866 10.4578 24.1144 9.62137 24.5136 8.67146C24.9129 7.72155 25.071 6.68768 24.9741 5.66187C24.8771 4.63606 24.528 3.65013 23.9579 2.79184C23.3878 1.93355 22.6143 1.22953 21.7063 0.742441C20.7983 0.255351 19.784 0.000303718 18.7536 6.37682e-08V6.37682e-08ZM9.68839 6.71875C9.68839 6.84307 9.63901 6.9623 9.5511 7.05021C9.46319 7.13811 9.34396 7.1875 9.21964 7.1875H7.18839V9.21875C7.18839 9.34307 7.13901 9.4623 7.0511 9.55021C6.96319 9.63811 6.84396 9.6875 6.71964 9.6875H5.78214C5.65782 9.6875 5.5386 9.63811 5.45069 9.55021C5.36278 9.4623 5.31339 9.34307 5.31339 9.21875V7.1875H3.28214C3.15782 7.1875 3.0386 7.13811 2.95069 7.05021C2.86278 6.9623 2.81339 6.84307 2.81339 6.71875V5.78125C2.81339 5.65693 2.86278 5.5377 2.95069 5.44979C3.0386 5.36189 3.15782 5.3125 3.28214 5.3125H5.31339V3.28125C5.31339 3.15693 5.36278 3.0377 5.45069 2.94979C5.5386 2.86189 5.65782 2.8125 5.78214 2.8125H6.71964C6.84396 2.8125 6.96319 2.86189 7.0511 2.94979C7.13901 3.0377 7.18839 3.15693 7.18839 3.28125V5.3125H9.21964C9.34396 5.3125 9.46319 5.36189 9.5511 5.44979C9.63901 5.5377 9.68839 5.65693 9.68839 5.78125V6.71875ZM18.1259 9.6875C17.8169 9.6875 17.5148 9.59586 17.2578 9.42417C17.0009 9.25248 16.8006 9.00845 16.6823 8.72294C16.5641 8.43743 16.5331 8.12327 16.5934 7.82017C16.6537 7.51708 16.8025 7.23867 17.021 7.02015C17.2396 6.80163 17.518 6.65281 17.8211 6.59252C18.1242 6.53223 18.4383 6.56318 18.7238 6.68144C19.0093 6.7997 19.2534 6.99997 19.4251 7.25692C19.5968 7.51387 19.6884 7.81597 19.6884 8.125C19.6884 8.5394 19.5238 8.93683 19.2307 9.22985C18.9377 9.52288 18.5403 9.6875 18.1259 9.6875V9.6875ZM20.6259 5.9375C20.3169 5.9375 20.0148 5.84586 19.7578 5.67417C19.5009 5.50248 19.3006 5.25845 19.1823 4.97294C19.0641 4.68743 19.0331 4.37327 19.0934 4.07017C19.1537 3.76708 19.3025 3.48867 19.521 3.27015C19.7396 3.05163 20.018 2.90281 20.3211 2.84252C20.6242 2.78223 20.9383 2.81318 21.2238 2.93144C21.5093 3.0497 21.7534 3.24997 21.9251 3.50692C22.0968 3.76387 22.1884 4.06597 22.1884 4.375C22.1884 4.7894 22.0238 5.18683 21.7307 5.47985C21.4377 5.77288 21.0403 5.9375 20.6259 5.9375Z" fill="black"/>
</svg>
