<svg width="25" height="25" viewBox="0 0 25 25" fill="none" xmlns="http://www.w3.org/2000/svg">
<path d="M24.5426 1.90455L23.0958 0.457772C22.9507 0.312642 22.7785 0.197518 22.5889 0.118972C22.3993 0.0404271 22.1961 0 21.9908 0C21.7856 0 21.5824 0.0404271 21.3928 0.118972C21.2032 0.197518 21.031 0.312642 20.8859 0.457772L18.6261 2.71998C18.4367 2.90889 18.294 3.13947 18.2096 3.39332L17.6158 5.17603L13.8922 8.89967C13.2985 8.47193 12.6471 8.13111 11.9342 7.9651C10.3009 7.58521 8.66272 7.92213 7.54553 9.03932C7.08979 9.49692 6.75082 10.0574 6.55725 10.6736C6.26428 11.5798 5.42395 12.2698 4.49915 12.3562C3.34192 12.467 2.26624 12.9153 1.44202 13.7449C-0.786497 15.967 -0.385618 19.971 2.32337 22.6785C5.03235 25.386 9.03333 25.7815 11.2579 23.5608C12.088 22.7366 12.5353 21.6614 12.6471 20.4988C12.733 19.5784 13.423 18.7346 14.3282 18.4412C14.9445 18.2473 15.5051 17.9082 15.963 17.4524C17.0797 16.3352 17.4152 14.7004 17.0372 13.0701C16.8717 12.3552 16.5309 11.7029 16.1017 11.1072L19.8243 7.38453L21.6056 6.79078C21.8594 6.70634 22.09 6.5637 22.2789 6.37428L24.5411 4.11256C24.8338 3.81979 24.9984 3.42284 24.9987 3.00886C24.9989 2.59487 24.8349 2.1977 24.5426 1.90455ZM10.1564 17.1878C9.69282 17.1878 9.23968 17.0503 8.85426 16.7928C8.46883 16.5352 8.16842 16.1692 7.99103 15.7409C7.81364 15.3127 7.76722 14.8414 7.85766 14.3868C7.94809 13.9321 8.17131 13.5145 8.49909 13.1867C8.82687 12.8589 9.24449 12.6357 9.69913 12.5453C10.1538 12.4549 10.625 12.5013 11.0533 12.6787C11.4816 12.8561 11.8476 13.1565 12.1051 13.5419C12.3627 13.9273 12.5001 14.3805 12.5001 14.844C12.5001 15.4656 12.2532 16.0617 11.8137 16.5013C11.3741 16.9408 10.778 17.1878 10.1564 17.1878Z" fill="black"/>
</svg>
