<svg width="26" height="26" viewBox="0 0 26 26" fill="none" xmlns="http://www.w3.org/2000/svg">
<path d="M23.9035 1.14473C23.1709 0.412421 22.1775 0.00103316 21.1418 0.00103316C20.106 0.00103316 19.1126 0.412421 18.38 1.14473L1.19253 18.3322C0.819445 18.6926 0.521859 19.1236 0.317136 19.6002C0.112413 20.0768 0.00465458 20.5893 0.000147487 21.108C-0.00435961 21.6267 0.0944752 22.141 0.290885 22.6211C0.487295 23.1012 0.777346 23.5373 1.14411 23.9041C1.51088 24.2709 1.94702 24.5609 2.42709 24.7573C2.90715 24.9537 3.42152 25.0526 3.94019 25.0481C4.45886 25.0435 4.97144 24.9358 5.44802 24.7311C5.9246 24.5263 6.35563 24.2288 6.71597 23.8557L23.9035 6.66817C24.6358 5.93564 25.0472 4.94225 25.0472 3.90645C25.0472 2.87065 24.6358 1.87726 23.9035 1.14473V1.14473ZM21.4655 5.79268C20.5085 6.74922 19.6335 6.89961 18.9298 7.02022C18.298 7.12911 17.841 7.20723 17.2355 7.8127C16.63 8.41817 16.5519 8.8752 16.443 9.50752C16.3219 10.2106 16.172 11.0861 15.215 12.0427C14.258 12.9992 13.383 13.1496 12.6798 13.2707C12.0475 13.3791 11.591 13.4572 10.9855 14.0627C10.38 14.6682 10.3019 15.1247 10.193 15.757C10.0724 16.4602 9.92251 17.3356 8.96548 18.2922C8.00845 19.2487 7.13296 19.3996 6.42984 19.5202C5.798 19.6291 5.34097 19.7072 4.7355 20.3127C4.58897 20.4592 4.39023 20.5415 4.18301 20.5415C3.97579 20.5415 3.77705 20.4592 3.63052 20.3127C3.48399 20.1662 3.40167 19.9674 3.40167 19.7602C3.40167 19.553 3.48399 19.3542 3.63052 19.2077C4.58755 18.2512 5.46255 18.1008 6.16568 17.9802C6.80044 17.8718 7.25454 17.7937 7.8605 17.1877C8.46646 16.5817 8.54409 16.1257 8.65249 15.4934C8.77359 14.7902 8.92349 13.9148 9.88052 12.9582C10.8376 12.0017 11.7126 11.8513 12.4157 11.7307C13.0504 11.6223 13.5045 11.5437 14.11 10.9382C14.7155 10.3327 14.7936 9.87569 14.903 9.24336C15.0236 8.54024 15.1735 7.66475 16.1305 6.70821C17.0876 5.75166 17.9626 5.60079 18.6657 5.48018C19.298 5.37129 19.7545 5.29366 20.3605 4.6877C20.507 4.54117 20.7058 4.45885 20.913 4.45885C21.1202 4.45885 21.319 4.54117 21.4655 4.6877C21.612 4.83423 21.6943 5.03297 21.6943 5.24019C21.6943 5.44741 21.612 5.64615 21.4655 5.79268V5.79268ZM1.58316 15.7316L15.7794 1.53536L15.216 0.97139C13.9953 -0.249313 12.0983 -0.330367 10.9782 0.78975L0.837552 10.9304C-0.282566 12.0505 -0.201023 13.9475 1.01919 15.1677L1.58316 15.7316ZM23.5128 9.26875L9.31656 23.465L9.88003 24.029C11.1007 25.2497 12.9977 25.3308 14.1178 24.2106L24.2584 14.07C25.3786 12.9499 25.297 11.0529 24.0768 9.83223L23.5128 9.26875Z" fill="black"/>
</svg>
