<svg width="19" height="26" viewBox="0 0 19 26" fill="none" xmlns="http://www.w3.org/2000/svg">
<path d="M16.4062 7.83333H16.3604C16.4734 6.84876 16.377 5.85141 16.0776 4.90669C15.7781 3.96198 15.2824 3.09123 14.6228 2.35157C13.9632 1.61191 13.1547 1.02003 12.2503 0.614768C11.3459 0.209503 10.366 0 9.375 0C8.38396 0 7.40411 0.209503 6.49972 0.614768C5.59533 1.02003 4.78682 1.61191 4.12723 2.35157C3.46764 3.09123 2.97186 3.96198 2.67241 4.90669C2.37296 5.85141 2.2766 6.84876 2.38965 7.83333H2.34375C1.72215 7.83333 1.12601 8.08026 0.686469 8.5198C0.24693 8.95934 0 9.55548 0 10.1771C0 10.7987 0.24693 11.3948 0.686469 11.8344C1.12601 12.2739 1.72215 12.5208 2.34375 12.5208H16.4062C17.0279 12.5208 17.624 12.2739 18.0635 11.8344C18.5031 11.3948 18.75 10.7987 18.75 10.1771C18.75 9.55548 18.5031 8.95934 18.0635 8.5198C17.624 8.08026 17.0279 7.83333 16.4062 7.83333ZM7.97754 24.1268C8.10073 24.3938 8.29781 24.6199 8.54546 24.7783C8.79312 24.9368 9.08098 25.021 9.375 25.021C9.66902 25.021 9.95688 24.9368 10.2045 24.7783C10.4522 24.6199 10.6493 24.3938 10.7725 24.1268L15.625 14.0833H3.125L7.97754 24.1268Z" fill="black"/>
</svg>
