<svg width="25" height="25" viewBox="0 0 25 25" fill="none" xmlns="http://www.w3.org/2000/svg">
<path d="M22.9678 0.0722778L7.34424 4.68605C7.02709 4.78567 6.74999 4.98384 6.5532 5.25176C6.35641 5.51968 6.2502 5.84337 6.25 6.17579V18.94C5.73835 18.8158 5.21399 18.7515 4.6875 18.7485C2.09961 18.7485 0 20.148 0 21.8735C0 23.5991 2.09961 24.9985 4.6875 24.9985C7.27539 24.9985 9.375 23.5991 9.375 21.8735V10.4634L21.875 6.80128V15.8154C21.3634 15.6908 20.839 15.6264 20.3125 15.6235C17.7246 15.6235 15.625 17.023 15.625 18.7485C15.625 20.4741 17.7246 21.8735 20.3125 21.8735C22.9004 21.8735 25 20.4746 25 18.7485V1.56105C24.9998 1.31575 24.9418 1.07396 24.8308 0.855237C24.7197 0.636512 24.5588 0.447 24.3609 0.30204C24.163 0.15708 23.9338 0.060743 23.6918 0.0208269C23.4497 -0.0190892 23.2017 -0.00146341 22.9678 0.0722778V0.0722778Z" fill="black"/>
</svg>
