<svg width="25" height="25" viewBox="0 0 25 25" fill="none" xmlns="http://www.w3.org/2000/svg">
<path d="M7.75656 0.00746627C6.96749 -0.0667525 6.23312 0.418599 6.03146 1.1852L5.30831 3.93276C14.4694 4.20083 20.6667 10.3102 21.0544 19.4113L23.8347 18.6408C24.6023 18.4279 25.0793 17.6798 24.988 16.8878C23.9685 8.06069 16.6389 0.845845 7.75656 0.00746627ZM4.90158 5.47622L0.0260875 24.006C-0.00935573 24.1406 -0.00867204 24.2822 0.0280696 24.4165C0.0648112 24.5507 0.136311 24.6729 0.235357 24.7707C0.334403 24.8685 0.457491 24.9385 0.592206 24.9735C0.72692 25.0086 0.868495 25.0075 1.00265 24.9704L19.5085 19.8385C19.3 11.299 13.4987 5.57387 4.90158 5.47817V5.47622ZM6.24923 20.3126C5.9402 20.3126 5.63811 20.221 5.38115 20.0493C5.1242 19.8776 4.92393 19.6336 4.80567 19.3481C4.68741 19.0626 4.65647 18.7484 4.71676 18.4453C4.77704 18.1422 4.92586 17.8638 5.14438 17.6453C5.3629 17.4268 5.64131 17.278 5.9444 17.2177C6.2475 17.1574 6.56166 17.1883 6.84717 17.3066C7.13268 17.4248 7.37671 17.6251 7.5484 17.8821C7.72009 18.139 7.81173 18.4411 7.81173 18.7501C7.81173 19.1645 7.64711 19.562 7.35409 19.855C7.06106 20.148 6.66363 20.3126 6.24923 20.3126ZM8.59298 12.8908C8.28395 12.8908 7.98186 12.7991 7.7249 12.6274C7.46795 12.4557 7.26768 12.2117 7.14942 11.9262C7.03116 11.6407 7.00022 11.3265 7.0605 11.0234C7.12079 10.7203 7.26961 10.4419 7.48813 10.2234C7.70665 10.0049 7.98506 9.85608 8.28815 9.79579C8.59125 9.7355 8.90541 9.76644 9.19092 9.88471C9.47643 10.003 9.72046 10.2032 9.89215 10.4602C10.0638 10.7171 10.1555 11.0192 10.1555 11.3283C10.1555 11.7427 9.99086 12.1401 9.69784 12.4331C9.40481 12.7261 9.00738 12.8908 8.59298 12.8908ZM13.6711 17.9689C13.3621 17.9689 13.06 17.8773 12.803 17.7056C12.5461 17.5339 12.3458 17.2898 12.2275 17.0043C12.1093 16.7188 12.0783 16.4047 12.1386 16.1016C12.1989 15.7985 12.3477 15.5201 12.5663 15.3015C12.7848 15.083 13.0632 14.9342 13.3663 14.8739C13.6694 14.8136 13.9835 14.8446 14.2691 14.9628C14.5546 15.0811 14.7986 15.2814 14.9703 15.5383C15.142 15.7953 15.2336 16.0974 15.2336 16.4064C15.2336 16.8208 15.069 17.2182 14.776 17.5112C14.4829 17.8043 14.0855 17.9689 13.6711 17.9689Z" fill="black"/>
</svg>
