<svg width="22" height="25" viewBox="0 0 22 25" fill="none" xmlns="http://www.w3.org/2000/svg">
<path d="M20.1674 12.5C22.1269 9.81982 22.1942 7.68457 21.3949 6.25C20.8622 5.29687 19.4154 3.77295 15.7147 4.20508C14.6659 1.70361 13.0683 0 10.9374 0C8.80654 0 7.20888 1.70361 6.16005 4.20508C2.4623 3.77637 1.01211 5.29687 0.479878 6.25C-0.319926 7.68555 -0.252543 9.81885 1.70742 12.5C-0.252055 15.1802 -0.319438 17.3154 0.479878 18.75C1.90615 21.3057 5.44472 20.8779 6.16005 20.7949C7.20839 23.2959 8.80654 25 10.9374 25C13.0683 25 14.6664 23.2959 15.7147 20.7949C16.4296 20.8779 19.9682 21.3057 21.3949 18.75C22.1947 17.3145 22.1273 15.1812 20.1674 12.5V12.5ZM3.09462 17.1875C2.89785 16.8354 3.08535 15.9766 3.82461 14.8296C4.16445 15.1484 4.51796 15.459 4.89248 15.7661C4.97597 16.4355 5.08779 17.0884 5.22255 17.7231C4.02334 17.7666 3.2748 17.5098 3.09462 17.1875V17.1875ZM4.89248 9.23437C4.51845 9.5415 4.16494 9.85205 3.82461 10.1709C3.08584 9.02344 2.89834 8.16455 3.09462 7.8125C3.26113 7.5127 3.89492 7.25244 4.94619 7.25244C5.02968 7.25244 5.13515 7.26709 5.22402 7.27051C5.08527 7.92005 4.97465 8.57528 4.89248 9.23437V9.23437ZM10.9374 3.125C11.3998 3.125 12.0214 3.78516 12.5907 4.94434C12.0443 5.125 11.495 5.33496 10.9374 5.57227C10.3798 5.33496 9.83046 5.125 9.28408 4.94434C9.85341 3.78516 10.475 3.125 10.9374 3.125ZM10.9374 21.875C10.475 21.875 9.85341 21.2148 9.28408 20.0557C9.83046 19.875 10.3798 19.665 10.9374 19.4277C11.495 19.665 12.0443 19.875 12.5907 20.0557C12.0214 21.2148 11.3998 21.875 10.9374 21.875ZM13.9892 14.1929C12.6854 15.1245 11.7362 15.625 10.9374 16.0229C10.1391 15.6255 9.18935 15.124 7.88564 14.1929C7.78847 12.8359 7.78847 12.1646 7.88564 10.8076C9.18789 9.87744 10.1381 9.37598 10.9374 8.97754C11.7377 9.37646 12.6884 9.87793 13.9892 10.8076C14.0858 12.1641 14.0863 12.8354 13.9892 14.1929ZM18.7802 17.1875C18.601 17.5107 17.8524 17.7646 16.6522 17.7222C16.787 17.0874 16.8988 16.4346 16.9823 15.7661C17.3563 15.459 17.7099 15.1484 18.0502 14.8296C18.789 15.9766 18.9765 16.8354 18.7802 17.1875ZM18.0502 10.1704C17.7103 9.85156 17.3568 9.54102 16.9823 9.23389C16.9001 8.57481 16.7894 7.91958 16.6508 7.27002C16.7396 7.2666 16.8446 7.25195 16.9286 7.25195C17.9794 7.25195 18.6137 7.5127 18.7802 7.81201C18.9765 8.16455 18.789 9.02344 18.0502 10.1704V10.1704ZM10.9374 10.9375C10.0746 10.9375 9.3749 11.6372 9.3749 12.5C9.3749 13.3628 10.0746 14.0625 10.9374 14.0625C11.8002 14.0625 12.4999 13.3628 12.4999 12.5C12.4999 11.6372 11.8002 10.9375 10.9374 10.9375Z" fill="black"/>
</svg>
