<svg width="25" height="25" viewBox="0 0 25 25" fill="none" xmlns="http://www.w3.org/2000/svg">
<path d="M6.20605 7.15332C6.26953 7.5293 6.59668 7.8125 6.9873 7.8125H7.79297C8.27148 7.8125 8.65234 7.39746 8.58887 6.93359C8.40332 5.55664 7.78809 4.28711 6.80176 3.28613C6.09863 2.56836 5.64941 1.66016 5.5127 0.673828C5.45898 0.288086 5.12695 0 4.72656 0H3.92578C3.44727 0 3.07617 0.415039 3.12988 0.878906C3.32031 2.43652 4.00879 3.87207 5.1123 5C5.69824 5.5957 6.07422 6.34277 6.20605 7.15332ZM11.6748 7.15332C11.7383 7.5293 12.0654 7.8125 12.4561 7.8125H13.2617C13.7402 7.8125 14.1211 7.39746 14.0576 6.93359C13.8721 5.55664 13.2568 4.28711 12.2705 3.28613C11.5674 2.56836 11.1182 1.66016 10.9814 0.673828C10.9277 0.288086 10.5957 0 10.1953 0H9.39453C8.91602 0 8.54004 0.415039 8.59863 0.878906C8.78906 2.43652 9.47754 3.87207 10.5811 5C11.167 5.5957 11.543 6.34277 11.6748 7.15332ZM19.5312 9.375H1.5625C0.698242 9.375 0 10.0732 0 10.9375V20.3125C0 22.9004 2.09961 25 4.6875 25H14.0625C16.6504 25 18.75 22.9004 18.75 20.3125H19.5312C22.5488 20.3125 25 17.8613 25 14.8438C25 11.8262 22.5488 9.375 19.5312 9.375ZM19.5312 17.1875H18.75V12.5H19.5312C20.8252 12.5 21.875 13.5498 21.875 14.8438C21.875 16.1377 20.8252 17.1875 19.5312 17.1875Z" fill="black"/>
</svg>
